<svg width="24" height="24" viewBox="0 0 24 24" fill="none" xmlns="http://www.w3.org/2000/svg">
<rect y="4" width="24" height="16" rx="3" fill="#1F72CD"/>
<path fill-rule="evenodd" clip-rule="evenodd" d="M4.57977 9.82812L2.39844 14.7973H5.0098L5.33353 14.005H6.07351L6.39725 14.7973H9.27162V14.1926L9.52775 14.7973H11.0146L11.2707 14.1798V14.7973H17.2486L17.9755 14.0256L18.6562 14.7973L21.7265 14.8037L19.5383 12.3266L21.7265 9.82812H18.7038L17.9962 10.5856L17.337 9.82812H10.8338L10.2754 11.1107L9.70384 9.82812H7.09793V10.4123L6.80804 9.82812H4.57977ZM13.5078 10.5312H16.9406L17.9906 11.6987L19.0743 10.5312H20.1243L18.529 12.3234L20.1243 14.0949H19.0267L17.9768 12.9138L16.8875 14.0949H13.5078V10.5312ZM14.3555 11.925V11.2741V11.2734H16.4974L17.4321 12.3144L16.456 13.3611H14.3555V12.6505H16.2282V11.925H14.3555ZM5.08439 10.5312H6.35729L7.80417 13.9009V10.5312H9.19858L10.3161 12.9473L11.3461 10.5312H12.7335V14.097H11.8893L11.8824 11.3029L10.6516 14.097H9.89639L8.6587 11.3029V14.097H6.92193L6.59267 13.2976H4.81381L4.48523 14.0963H3.55469L5.08439 10.5312ZM5.11719 12.5647L5.70325 11.1406L6.28864 12.5647H5.11719Z" fill="white"/>
</svg>
