<svg width="24" height="24" viewBox="0 0 24 24" fill="none" xmlns="http://www.w3.org/2000/svg">
<rect y="4" width="24" height="16" rx="3" fill="white"/>
<rect x="0.5" y="4.5" width="23" height="15" rx="2.5" stroke="black" stroke-opacity="0.1"/>
<path fill-rule="evenodd" clip-rule="evenodd" d="M12.1713 15.3362C11.3542 16.0413 10.2944 16.467 9.13619 16.467C6.55196 16.467 4.45703 14.3477 4.45703 11.7335C4.45703 9.11925 6.55196 7 9.13619 7C10.2944 7 11.3542 7.42566 12.1713 8.13077C12.9884 7.42566 14.0483 7 15.2064 7C17.7907 7 19.8856 9.11925 19.8856 11.7335C19.8856 14.3477 17.7907 16.467 15.2064 16.467C14.0483 16.467 12.9884 16.0413 12.1713 15.3362Z" fill="#ED0006"/>
<path fill-rule="evenodd" clip-rule="evenodd" d="M12.1719 15.3362C13.1779 14.468 13.8159 13.1761 13.8159 11.7335C13.8159 10.2909 13.1779 8.99899 12.1719 8.13079C12.989 7.42567 14.0489 7 15.207 7C17.7913 7 19.8862 9.11925 19.8862 11.7335C19.8862 14.3477 17.7913 16.467 15.207 16.467C14.0489 16.467 12.989 16.0413 12.1719 15.3362Z" fill="#F9A000"/>
<path fill-rule="evenodd" clip-rule="evenodd" d="M12.1713 15.3382C13.1774 14.47 13.8153 13.1781 13.8153 11.7355C13.8153 10.2929 13.1774 9.00102 12.1713 8.13281C11.1653 9.00102 10.5273 10.2929 10.5273 11.7355C10.5273 13.1781 11.1653 14.47 12.1713 15.3382Z" fill="#FF5E00"/>
</svg>
