<svg width="24" height="24" viewBox="0 0 24 24" fill="none" xmlns="http://www.w3.org/2000/svg">
<rect y="4" width="24" height="16" rx="3" fill="white"/>
<rect x="0.5" y="4.5" width="23" height="15" rx="2.5" stroke="black" stroke-opacity="0.1"/>
<path fill-rule="evenodd" clip-rule="evenodd" d="M6.63095 14.375H5.57381C5.50147 14.375 5.43995 14.4276 5.42867 14.499L5.00111 17.2098C4.99261 17.2633 5.03404 17.3115 5.08829 17.3115H5.59298C5.66532 17.3115 5.72684 17.2589 5.73813 17.1874L5.85344 16.4562C5.86457 16.3846 5.92624 16.3321 5.99843 16.3321H6.33308C7.02946 16.3321 7.43133 15.9951 7.53634 15.3274C7.58362 15.0352 7.53834 14.8057 7.4015 14.6449C7.25128 14.4684 6.98475 14.375 6.63095 14.375ZM6.75291 15.3651C6.69511 15.7444 6.40528 15.7444 6.12503 15.7444H5.96551L6.07742 15.036C6.08406 14.9932 6.12116 14.9616 6.16445 14.9616H6.23756C6.42846 14.9616 6.60856 14.9616 6.70162 15.0704C6.75706 15.1354 6.77408 15.2318 6.75291 15.3651ZM9.79098 15.3529H9.28474C9.24161 15.3529 9.20434 15.3845 9.19768 15.4273L9.17529 15.5689L9.13989 15.5176C9.0303 15.3585 8.78594 15.3054 8.54202 15.3054C7.98256 15.3054 7.50479 15.729 7.41173 16.3234C7.36337 16.6198 7.43211 16.9033 7.60029 17.101C7.75458 17.2828 7.97533 17.3586 8.23793 17.3586C8.68866 17.3586 8.93866 17.0687 8.93866 17.0687L8.91606 17.2094C8.90755 17.2632 8.94896 17.3114 9.0029 17.3114H9.45892C9.53146 17.3114 9.59262 17.2588 9.60406 17.1873L9.87767 15.4546C9.88633 15.4014 9.84506 15.3529 9.79098 15.3529ZM9.08531 16.3382C9.03645 16.6274 8.8069 16.8216 8.51419 16.8216C8.36719 16.8216 8.24966 16.7744 8.17427 16.6851C8.09944 16.5964 8.07097 16.4701 8.09479 16.3294C8.14043 16.0426 8.37384 15.8422 8.66212 15.8422C8.80583 15.8422 8.92271 15.8899 8.99968 15.9801C9.07679 16.0711 9.10741 16.1982 9.08531 16.3382ZM11.9784 15.3529H12.4871C12.5584 15.3529 12.5999 15.4328 12.5594 15.4912L10.8675 17.9335C10.8401 17.973 10.7949 17.9966 10.7467 17.9966H10.2386C10.1671 17.9966 10.1253 17.916 10.1667 17.8574L10.6936 17.1138L10.1333 15.4694C10.1139 15.4122 10.1561 15.3529 10.2169 15.3529H10.7168C10.7817 15.3529 10.839 15.3955 10.8577 15.4576L11.1551 16.4508L11.8568 15.4173C11.8842 15.377 11.9299 15.3529 11.9784 15.3529Z" fill="#253B80"/>
<path fill-rule="evenodd" clip-rule="evenodd" d="M17.4966 17.2099L17.9304 14.4495C17.9371 14.4067 17.9742 14.3751 18.0173 14.375H18.5058C18.5597 14.375 18.6011 14.4234 18.5926 14.4769L18.1648 17.1875C18.1536 17.2591 18.0921 17.3116 18.0196 17.3116H17.5834C17.5295 17.3116 17.4881 17.2634 17.4966 17.2099ZM14.174 14.3751H13.1166C13.0445 14.3751 12.9829 14.4277 12.9716 14.4991L12.5441 17.2099C12.5356 17.2634 12.577 17.3116 12.631 17.3116H13.1735C13.2239 17.3116 13.2671 17.2749 13.2749 17.2248L13.3963 16.4564C13.4074 16.3848 13.4691 16.3323 13.5412 16.3323H13.8757C14.5722 16.3323 14.974 15.9953 15.0791 15.3275C15.1266 15.0354 15.081 14.8058 14.9442 14.645C14.7941 14.4686 14.5278 14.3751 14.174 14.3751ZM14.2959 15.3652C14.2383 15.7446 13.9484 15.7446 13.668 15.7446H13.5086L13.6207 15.0361C13.6274 14.9933 13.6641 14.9618 13.7076 14.9618H13.7807C13.9714 14.9618 14.1517 14.9618 14.2447 15.0706C14.3002 15.1355 14.3171 15.232 14.2959 15.3652ZM17.3337 15.3531H16.8278C16.7843 15.3531 16.7474 15.3846 16.7409 15.4275L16.7185 15.569L16.683 15.5177C16.5734 15.3586 16.3292 15.3055 16.0852 15.3055C15.5258 15.3055 15.0482 15.7292 14.9551 16.3236C14.9069 16.62 14.9753 16.9035 15.1435 17.1012C15.2981 17.2829 15.5186 17.3587 15.7812 17.3587C16.2319 17.3587 16.4818 17.0689 16.4818 17.0689L16.4593 17.2096C16.4508 17.2633 16.4922 17.3116 16.5465 17.3116H17.0023C17.0745 17.3116 17.136 17.259 17.1473 17.1875L17.421 15.4548C17.4294 15.4015 17.388 15.3531 17.3337 15.3531ZM16.6281 16.3384C16.5795 16.6276 16.3497 16.8217 16.0569 16.8217C15.9102 16.8217 15.7925 16.7746 15.717 16.6852C15.6422 16.5965 15.6141 16.4702 15.6376 16.3296C15.6834 16.0428 15.9166 15.8424 16.2048 15.8424C16.3486 15.8424 16.4654 15.8901 16.5425 15.9802C16.6199 16.0713 16.6505 16.1983 16.6281 16.3384Z" fill="#179BD7"/>
<path d="M10.5458 13.4121L10.6758 12.5867L10.3863 12.5799H9.00391L9.96459 6.48847C9.96752 6.47008 9.97725 6.45293 9.99142 6.44076C10.0056 6.42858 10.0237 6.42188 10.0426 6.42188H12.3735C13.1474 6.42188 13.6814 6.5829 13.9602 6.90073C14.0909 7.04983 14.1741 7.20564 14.2144 7.3771C14.2566 7.55702 14.2574 7.77197 14.2161 8.03414L14.2131 8.05327V8.22125L14.3439 8.29531C14.454 8.3537 14.5414 8.42055 14.6085 8.49709C14.7204 8.62457 14.7927 8.78659 14.8232 8.97868C14.8548 9.17624 14.8443 9.41131 14.7927 9.67746C14.733 9.98361 14.6366 10.2503 14.5064 10.4684C14.3866 10.6695 14.234 10.8362 14.0529 10.9654C13.8799 11.0882 13.6744 11.1814 13.4421 11.2411C13.2169 11.2996 12.9602 11.3293 12.6787 11.3293H12.4973C12.3676 11.3293 12.2415 11.376 12.1427 11.4597C12.0435 11.5452 11.9779 11.6619 11.9578 11.7897L11.9441 11.864L11.7145 13.3189L11.7041 13.3724C11.7013 13.3893 11.6966 13.3978 11.6897 13.4035C11.6835 13.4086 11.6745 13.4121 11.6658 13.4121H10.5458Z" fill="#253B80"/>
<path d="M14.467 8.07031C14.46 8.11479 14.4521 8.16026 14.4431 8.20698C14.1357 9.7852 13.0841 10.3304 11.7409 10.3304H11.0571C10.8928 10.3304 10.7544 10.4497 10.7288 10.6117L10.3786 12.8323L10.2795 13.4617C10.2628 13.5681 10.3449 13.664 10.4522 13.664H11.6652C11.8088 13.664 11.9308 13.5597 11.9534 13.418L11.9653 13.3564L12.1937 11.9071L12.2084 11.8276C12.2307 11.6855 12.3529 11.5811 12.4966 11.5811H12.678C13.8531 11.5811 14.7731 11.104 15.042 9.72333C15.1543 9.14656 15.0962 8.66497 14.7989 8.32626C14.709 8.22413 14.5974 8.13939 14.467 8.07031Z" fill="#179BD7"/>
<path d="M14.1432 7.93846C14.0963 7.92479 14.0478 7.91236 13.998 7.90118C13.9481 7.89025 13.8969 7.88056 13.8442 7.87211C13.6598 7.84229 13.4578 7.82812 13.2414 7.82812H11.4144C11.3694 7.82812 11.3267 7.83831 11.2885 7.8567C11.2042 7.8972 11.1416 7.97698 11.1264 8.07463L10.7377 10.5363L10.7266 10.6081C10.7522 10.4461 10.8906 10.3268 11.0548 10.3268H11.7387C13.0818 10.3268 14.1335 9.78133 14.4409 8.20336C14.4501 8.15664 14.4578 8.11117 14.4647 8.06669C14.387 8.02543 14.3027 7.99015 14.212 7.96007C14.1897 7.95262 14.1666 7.94542 14.1432 7.93846Z" fill="#222D65"/>
<path d="M11.1234 8.07726C11.1386 7.97959 11.2012 7.89983 11.2854 7.85957C11.324 7.84118 11.3665 7.83099 11.4114 7.83099H13.2384C13.4549 7.83099 13.6569 7.84515 13.8412 7.87498C13.8939 7.88342 13.9452 7.89312 13.9951 7.90405C14.0448 7.91523 14.0932 7.92766 14.1402 7.94132C14.1636 7.94828 14.1867 7.95549 14.2093 7.9627C14.3 7.99276 14.3842 8.0283 14.462 8.0693C14.5535 7.48607 14.4613 7.08897 14.146 6.72939C13.7983 6.33354 13.1708 6.16406 12.3679 6.16406H10.037C9.87295 6.16406 9.7331 6.28334 9.70771 6.44561L8.73687 12.5997C8.7177 12.7214 8.81162 12.8313 8.93437 12.8313H10.3735L10.7348 10.5389L11.1234 8.07726Z" fill="#253B80"/>
</svg>
