<svg width="24" height="24" viewBox="0 0 24 24" fill="none" xmlns="http://www.w3.org/2000/svg">
<rect y="4" width="24" height="16" rx="3" fill="white"/>
<rect x="0.5" y="4.5" width="23" height="15" rx="2.5" stroke="black" stroke-opacity="0.1"/>
<path fill-rule="evenodd" clip-rule="evenodd" d="M7.28611 15.1453H5.83218L4.74191 10.9859C4.69016 10.7945 4.58028 10.6254 4.41865 10.5457C4.01529 10.3453 3.57082 10.1859 3.08594 10.1055V9.94531H5.42811C5.75137 9.94531 5.99381 10.1859 6.03421 10.4652L6.59991 13.4656L8.05313 9.94531H9.46666L7.28611 15.1453ZM10.2755 15.1453H8.90234L10.033 9.94531H11.4061L10.2755 15.1453ZM13.183 11.3886C13.2234 11.1085 13.4658 10.9484 13.7487 10.9484C14.1932 10.9082 14.6773 10.9886 15.0814 11.1883L15.3238 10.0687C14.9198 9.90854 14.4753 9.82812 14.0719 9.82812C12.7392 9.82812 11.7695 10.5484 11.7695 11.5481C11.7695 12.3085 12.4564 12.7079 12.9413 12.9484C13.4658 13.1883 13.6679 13.3484 13.6275 13.5883C13.6275 13.9481 13.2234 14.1082 12.82 14.1082C12.3351 14.1082 11.8503 13.9883 11.4065 13.7879L11.1641 14.9082C11.6489 15.1079 12.1735 15.1883 12.6584 15.1883C14.1527 15.2278 15.0814 14.5082 15.0814 13.4281C15.0814 12.068 13.183 11.9883 13.183 11.3886ZM19.885 15.1453L18.7948 9.94531H17.6237C17.3812 9.94531 17.1388 10.1055 17.058 10.3453L15.0391 15.1453H16.4526L16.7347 14.3855H18.4715L18.6331 15.1453H19.885ZM17.825 11.3516L18.2283 13.3114H17.0977L17.825 11.3516Z" fill="#172B85"/>
</svg>
